<?xml version="1.0" encoding="utf-8"?>
<!-- Generator: Adobe Illustrator 16.0.0, SVG Export Plug-In . SVG Version: 6.00 Build 0)  -->
<!DOCTYPE svg PUBLIC "-//W3C//DTD SVG 1.1//EN" "http://www.w3.org/Graphics/SVG/1.1/DTD/svg11.dtd">
<svg version="1.1" id="Layer_1" xmlns="http://www.w3.org/2000/svg" xmlns:xlink="http://www.w3.org/1999/xlink" x="0px" y="0px"
	 width="73.15px" height="142.042px" viewBox="0 0 73.15 142.042" enable-background="new 0 0 73.15 142.042" xml:space="preserve">
<g>
	<polygon fill="#FFFFFF" points="46.965,112 46.965,106.876 38.965,113.283 38.965,100 34.965,100 34.965,113.281 26.965,106.876 
		26.965,112 36.965,120 	"/>
	<polygon fill="#FFFFFF" points="26.965,8 26.965,13.124 34.965,6.72 34.965,20 38.965,20 38.965,6.722 46.965,13.124 46.965,8 
		36.963,0 	"/>
	<g>
		<path fill="#FFFFFF" d="M53.157,80.306C52.813,56.324,48.927,46,36.965,46c-11.964,0-15.848,10.324-16.197,34.306
			C14.801,75.541,10.965,68.214,10.965,60c0-14.338,11.664-26,26-26s26,11.662,26,26C62.965,68.214,59.127,75.541,53.157,80.306
			 M36.927,69.978c-12.035,0-10.254-14.62-10.254-14.62s2.055-4.632,10.254-4.632c8.206,0,10.341,4.632,10.341,4.632
			S48.959,69.978,36.927,69.978 M36.965,30c-16.542,0-30,13.458-30,30c0,16.542,13.458,30,30,30c16.54,0,30-13.457,30-30
			C66.965,43.458,53.505,30,36.965,30"/>
	</g>
</g>
</svg>
